<svg xmlns="http://www.w3.org/2000/svg" xmlns:xlink="http://www.w3.org/1999/xlink" id="Layer_1" width="150" height="30" data-name="Layer 1" viewBox="0 0 150 30"><script xmlns="" id="eppiocemhmnlbhjplcgkofciiegomcon"/><script xmlns=""/><script xmlns=""/><defs><style>.cls-1,.cls-2{fill:#fd0100;stroke-width:0}.cls-2{fill:#fff}</style></defs><g><a xlink:href="70.1"><path id="logoMark_PathItem_" d="M118.94 27.18h5.08V2.84h-13.75l8.67 24.34z" class="cls-1" data-name="logoMark &amp;lt;PathItem&amp;gt;"/></a><path d="M150 14.95c0 1.44-.25 2.81-.71 4.09h-22.77a12.04 12.04 0 0 1-.71-4.09c0-6.69 5.41-12.12 12.09-12.12s12.09 5.43 12.09 12.12Z" class="cls-1"/><g><path d="m128.23 25.2-1.71-3.15h1.14l.78 1.52c.16.31.34.73.34.73h.01s.19-.42.35-.73l.76-1.52h1.09l-1.71 3.15v1.98h-1.04V25.2ZM131.41 22.04h3.78v.88h-2.74v1.15h2.4v.85h-2.4v1.39h2.76v.87h-3.8v-5.13ZM137.31 22.04h1.08l1.81 5.13h-1.09l-.35-1.09h-1.85l-.34 1.09h-1.06l1.79-5.13Zm-.15 3.25h1.36l-.46-1.48c-.09-.27-.21-.79-.21-.79h-.01s-.13.52-.22.79l-.46 1.48ZM140.63 22.04h2.36c.99 0 1.65.57 1.65 1.43 0 .6-.28 1.06-.94 1.24v.02c.47.14.72.41.78 1.03.07.73.04 1.28.22 1.36v.05h-1c-.13-.06-.14-.63-.19-1.18-.04-.56-.36-.88-1.01-.88h-.84v2.06h-1.04v-5.13Zm1.04 2.27h1.11c.57 0 .85-.29.85-.7s-.27-.73-.82-.73h-1.14v1.43ZM145.08 25.59h1.02c.07.62.42.86 1.16.86.53 0 1-.19 1-.66 0-.5-.49-.6-1.27-.78-.92-.21-1.76-.45-1.76-1.52 0-1.01.83-1.54 1.97-1.54s1.9.57 1.98 1.6h-1c-.06-.52-.46-.78-.99-.78-.56 0-.93.24-.93.6 0 .42.36.54 1.12.7 1.06.23 1.92.48 1.92 1.59 0 1.04-.84 1.62-2 1.62-1.39 0-2.19-.62-2.22-1.7Z" class="cls-2"/></g></g><path d="M71.98 19.35 65.3 2.83h-7.17v24.35h6.05V13.23l5.33 13.95h4.94l5.32-13.95v13.95h6.05V2.83h-7.17l-6.67 16.52zM96.85 2.83l-8.91 24.35h6.26l1.71-4.87h11.38l1.73 4.87h6.26l-8.84-24.35h-9.6Zm.84 14.4 3.2-9.13h1.36l3.25 9.13h-7.8ZM16.31 14.88c-.86-.54-1.79-.99-2.78-1.34-1-.35-1.97-.67-2.92-.97-.7-.23-1.33-.48-1.91-.73-.58-.25-1.04-.54-1.37-.87-.34-.32-.5-.74-.5-1.25 0-.46.14-.87.43-1.22s.67-.61 1.13-.8c.46-.19.97-.28 1.53-.28.44 0 .89.08 1.34.23.26.09.49.2.71.34s.01 0 .04.02c.09.06.18.13.26.2.24.22.57.64.79 1.39v.01c.1.34.18.75.21 1.24h5.66c-.18-3.96-2-5.53-2-5.53-.8-.89-1.81-1.57-3.04-2.04-1.23-.46-2.63-.7-4.21-.7-1.74 0-3.28.27-4.63.82-1.35.55-2.41 1.35-3.2 2.42C1.06 6.89.67 8.19.67 9.72c-.02 1.25.21 2.3.7 3.13.49.83 1.14 1.51 1.95 2.04.81.52 1.69.95 2.64 1.29.95.34 1.89.63 2.82.89.84.26 1.57.5 2.21.75.64.24 1.14.54 1.5.89.36.35.54.81.54 1.39 0 .72-.3 1.3-.89 1.76-.59.45-1.43.68-2.52.68-.63 0-1.2-.09-1.72-.26s-.96-.46-1.32-.87c-.11-.13-.21-.27-.3-.43-.21-.44-.38-1.04-.44-1.87H0c.03.67.11 1.26.21 1.79.28 1.42.86 2.61 1.74 3.58.88.97 2.01 1.71 3.39 2.21 1.38.5 2.94.75 4.68.75 2.06 0 3.77-.32 5.11-.97 1.34-.65 2.35-1.52 3.03-2.61.67-1.09 1.01-2.32 1.01-3.69 0-1.28-.26-2.34-.78-3.18a6.456 6.456 0 0 0-2.07-2.09ZM6.25 20.96c-.09-.17-.18-.34-.24-.54.07.19.15.37.24.54ZM40.43 8.68c.97-.64 2.09-.96 3.34-.96s2.26.25 3.17.75c.9.5 1.65 1.28 2.23 2.35h5.91l-.11-.69c-.06-.4-.16-.79-.31-1.17a9.119 9.119 0 0 0-2.21-3.17c-1.1-1.03-2.41-1.83-3.93-2.38-1.52-.56-3.17-.83-4.96-.83s-3.54.3-5.04.9c-1.51.6-2.81 1.46-3.91 2.57-1.1 1.11-1.95 2.43-2.54 3.95-.59 1.52-.89 3.18-.89 4.99s.3 3.47.89 4.99c.59 1.52 1.44 2.84 2.56 3.95s2.43 1.97 3.95 2.57c1.52.6 3.21.9 5.06.9 1.97 0 3.71-.34 5.22-1.03 1.51-.68 2.78-1.57 3.83-2.64l.04-.04a8.568 8.568 0 0 0 2.37-5.94v-4.21H43.69v4.73h5.84v1.01a6.81 6.81 0 0 1-3.33 2.6c-.39.15-.8.25-1.23.31-.3.04-.48.05-.48.05-.13 0-.25.01-.38.01-1.41 0-2.63-.3-3.64-.9-1.01-.6-1.78-1.45-2.31-2.54s-.8-2.37-.8-3.83c0-1.37.27-2.6.82-3.7.54-1.1 1.3-1.97 2.28-2.61ZM22.23 2.83h6.05v5.28h-6.05zM22.23 10.84h6.05v16.34h-6.05z" class="cls-2"/><script xmlns=""/></svg>